HIERARCHY
ROOT Hips
{
	OFFSET 0.000000 0.000000 0.000000
	CHANNELS 6 Xposition Yposition Zposition Zrotation Yrotation Xrotation 
	JOINT LHipJoint
	{
		OFFSET 0.000000 0.000000 0.000000
		CHANNELS 3 Zrotation Yrotation Xrotation
		JOINT LeftUpLeg
		{
			OFFSET 8.178360 -10.767780 5.035740
			CHANNELS 3 Zrotation Yrotation Xrotation
			JOINT LeftLeg
			{
				OFFSET 14.688660 -40.356780 0.000000
				CHANNELS 3 Zrotation Yrotation Xrotation
				JOINT LeftFoot
				{
					OFFSET 15.373200 -42.237540 0.000000
					CHANNELS 3 Zrotation Yrotation Xrotation
					JOINT LeftToeBase
					{
						OFFSET 0.945840 -2.598660 13.935300
						CHANNELS 3 Zrotation Yrotation Xrotation
						End Site
						{
							OFFSET 0.000000 0.000000 0.000000
						}
					}
				}
			}
		}
	}
	JOINT RHipJoint
	{
		OFFSET 0.000000 0.000000 0.000000
		CHANNELS 3 Zrotation Yrotation Xrotation
		JOINT RightUpLeg
		{
			OFFSET -7.833120 -10.767780 5.035740
			CHANNELS 3 Zrotation Yrotation Xrotation
			JOINT RightLeg
			{
				OFFSET -15.255180 -41.913300 0.000000
				CHANNELS 3 Zrotation Yrotation Xrotation
				JOINT RightFoot
				{
					OFFSET -15.409560 -42.337380 0.000000
					CHANNELS 3 Zrotation Yrotation Xrotation
					JOINT RightToeBase
					{
						OFFSET -0.988380 -2.715540 14.178900
						CHANNELS 3 Zrotation Yrotation Xrotation
						End Site
						{
							OFFSET 0.000000 0.000000 0.000000
						}
					}
				}
			}
		}
	}
	JOINT LowerBack
	{
		OFFSET 0.000000 0.000000 0.000000
		CHANNELS 3 Zrotation Yrotation Xrotation
		JOINT Spine
		{
			OFFSET 0.169620 12.213540 -1.160280
			CHANNELS 3 Zrotation Yrotation Xrotation
			JOINT Spine1
			{
				OFFSET 0.340320 12.293100 -0.256500
				CHANNELS 3 Zrotation Yrotation Xrotation
				JOINT Neck
				{
					OFFSET 0.000000 0.000000 0.000000
					CHANNELS 3 Zrotation Yrotation Xrotation
					JOINT Neck1
					{
						OFFSET -0.325020 10.477440 1.032120
						CHANNELS 3 Zrotation Yrotation Xrotation
						JOINT Head
						{
							OFFSET 0.624420 10.568160 -0.743820
							CHANNELS 3 Zrotation Yrotation Xrotation
							End Site
							{
								OFFSET 0.000000 0.000000 0.000000
							}
						}
					}
				}
				JOINT LeftShoulder
				{
					OFFSET 0.000000 0.000000 0.000000
					CHANNELS 3 Zrotation Yrotation Xrotation
					JOINT LeftArm
					{
						OFFSET 20.174460 7.205340 -1.867260
						CHANNELS 3 Zrotation Yrotation Xrotation
						JOINT LeftForeArm
						{
							OFFSET 29.898000 -0.000000 -0.000000
							CHANNELS 3 Zrotation Yrotation Xrotation
							JOINT LeftHand
							{
								OFFSET 20.901360 -0.000000 -0.000000
								CHANNELS 3 Zrotation Yrotation Xrotation
								JOINT LeftFingerBase
								{
									OFFSET 0.000000 0.000000 0.000000
									CHANNELS 3 Zrotation Yrotation Xrotation
									JOINT LeftHandIndex1
									{
										OFFSET 4.291560 -0.000000 -0.000000
										CHANNELS 3 Zrotation Yrotation Xrotation
										End Site
										{
											OFFSET 0.000000 0.000000 0.000000
										}
									}
								}
								JOINT LThumb
								{
									OFFSET 0.000000 0.000000 0.000000
									CHANNELS 3 Zrotation Yrotation Xrotation
									End Site
									{
										OFFSET 0.000000 0.000000 0.000000
									}
								}
							}
						}
					}
				}
				JOINT RightShoulder
				{
					OFFSET 0.000000 0.000000 0.000000
					CHANNELS 3 Zrotation Yrotation Xrotation
					JOINT RightArm
					{
						OFFSET -18.819600 8.244300 -2.427900
						CHANNELS 3 Zrotation Yrotation Xrotation
						JOINT RightForeArm
						{
							OFFSET -31.451400 -0.000000 -0.000000
							CHANNELS 3 Zrotation Yrotation Xrotation
							JOINT RightHand
							{
								OFFSET -20.665020 -0.000000 -0.000000
								CHANNELS 3 Zrotation Yrotation Xrotation
								JOINT RightFingerBase
								{
									OFFSET 0.000000 0.000000 0.000000
									CHANNELS 3 Zrotation Yrotation Xrotation
									JOINT RightHandIndex1
									{
										OFFSET -3.735180 -0.000000 -0.000000
										CHANNELS 3 Zrotation Yrotation Xrotation
										End Site
										{
											OFFSET 0.000000 0.000000 0.000000
										}
									}
								}
								JOINT RThumb
								{
									OFFSET 0.000000 0.000000 0.000000
									CHANNELS 3 Zrotation Yrotation Xrotation
									End Site
									{
										OFFSET 0.000000 0.000000 0.000000
									}
								}
							}
						}
					}
				}
			}
		}
	}
}
MOTION
Frames:	8
Frame Time:	0.0333333
51.578982 107.429868 50.936466 178.488322 -38.881739 -175.308333 -4.043044 1.188088 2.784531 -12.349394 -5.898354 -8.958672 -0.175421 7.863820 23.306799 0.054481 1.428720 -4.956757 0.397100 -4.046000 -11.206200 2.188116 -0.661374 1.100234 19.922912 -2.802456 -16.693119 -4.540942 -13.242356 40.878075 -3.181588 13.255938 -6.159949 -0.107500 2.113900 -5.820600 -2.103754 1.194316 8.240113 1.261033 1.390786 0.156916 1.849489 0.558240 -4.104529 -10.645972 -1.530800 -17.263903 5.103955 -0.800447 19.596331 4.368000 -1.555900 14.377500 -6.045370 -1.620928 -1.618852 -76.823625 -1.292771 13.772470 19.699274 -27.881805 -6.154167 -1.746925 -2.450982 1.013255 25.729189 20.872526 11.604800 -7.125000 0.000000 0.000000 -1.834700 55.838800 -0.488000 5.211992 1.641593 -1.340890 83.912219 -2.740531 5.812884 -17.946663 26.580254 -4.753133 0.339970 -0.212390 8.631234 -13.973257 9.774576 -2.522500 7.125000 0.000000 0.000000 8.998300 -19.807100 5.484300 
50.742318 107.250282 51.407280 178.443672 -36.741158 -175.178223 -4.039362 1.121559 2.791503 -13.074422 -4.655765 -9.547614 -0.013531 8.142580 24.170883 0.230127 0.818808 -5.948377 0.143500 -2.441700 -6.728100 2.321129 -0.655297 1.141857 21.598406 -3.006704 -16.062142 -3.839793 -12.620531 38.555369 -1.039536 1.370037 -8.636873 -0.027100 -1.063600 2.923700 -1.836079 1.398975 7.850925 1.042395 1.684858 0.006403 1.159687 0.731517 -4.223945 -10.482599 -1.510066 -17.058833 4.887210 -0.891033 19.692017 4.240500 -1.627300 14.389200 -6.075351 -1.593457 -1.639741 -76.288407 -0.594131 14.386385 19.504820 -27.704175 -6.055489 -1.735459 -2.481712 0.832382 25.585189 21.083844 11.640600 -7.125000 0.000000 0.000000 -2.065800 56.060100 -0.560600 5.197888 1.612750 -1.355867 84.215397 -2.808038 6.408933 -17.409035 25.882433 -4.484183 0.358888 -0.212504 7.379908 -14.068247 9.728644 -2.532400 7.125000 0.000000 0.000000 8.921300 -19.842600 5.429000 
49.869858 106.893534 52.046154 178.304119 -34.520173 -175.386184 -3.976039 1.059612 2.748909 -13.943167 -3.266532 -10.318180 0.347843 8.758523 26.043131 0.499330 -0.157420 -7.167484 0.139900 -2.410900 -6.642600 2.425660 -0.673201 1.238508 21.116295 -1.725574 -14.036124 -3.302298 -11.974253 36.299434 -0.864518 0.177038 -10.375138 -0.064700 -1.640700 4.513800 -0.905623 1.520954 7.979340 0.824779 1.946081 0.024006 0.051423 0.871323 -4.226734 -10.730812 -1.516266 -17.230737 4.863751 -0.801835 19.695922 4.335300 -1.635300 14.436800 -6.136690 -1.557657 -1.639072 -76.149832 -0.451569 14.550820 19.149687 -27.249306 -5.850172 -1.581555 -2.324348 2.278164 23.166792 19.432834 9.673200 -7.125000 0.000000 0.000000 -4.328700 53.662000 -0.923300 5.125588 1.634149 -1.368306 84.614408 -3.178798 6.311356 -18.107073 26.817429 -4.856463 0.297346 -0.111847 6.082987 -12.230594 8.313595 -1.857600 7.125000 0.000000 0.000000 10.342800 -21.445400 5.940800 
48.865128 106.670868 52.776642 178.038509 -32.436312 -175.784218 -3.853881 0.994870 2.662260 -14.808957 -1.816616 -11.345364 0.912649 9.612189 28.704911 0.934305 -2.208444 -7.527976 0.276500 -3.382400 -9.345100 2.459100 -0.722377 1.371301 19.130033 -1.088430 -12.205863 -2.978249 -11.457118 34.562429 -1.830744 4.166597 -10.017323 -0.037300 -1.246900 3.428300 0.286326 1.588835 8.642713 0.657311 2.168137 0.045556 -1.143180 0.998070 -4.495096 -10.774781 -1.438431 -17.421560 4.544367 -0.633249 19.720233 4.246600 -1.621300 14.491800 -6.181160 -1.529153 -1.663893 -76.772419 -0.012443 14.476695 19.097820 -27.136455 -5.802725 -1.581884 -2.233060 3.777775 22.792175 18.828651 9.221100 -7.125000 0.000000 0.000000 -4.580100 52.892900 -0.891000 5.094752 1.641647 -1.371722 84.206648 -3.435796 6.914551 -17.998402 26.706962 -4.811264 0.291303 -0.108297 6.437375 -12.106102 8.091152 -1.788300 7.125000 0.000000 0.000000 10.447800 -21.678700 5.946800 
47.975070 106.610196 53.491362 179.128214 -31.115244 -176.900896 -3.636880 0.973520 2.533783 -13.643201 -1.488953 -12.572433 1.785566 10.741864 32.299793 1.877631 -7.448827 -7.067574 0.700800 -5.350900 -14.912200 2.401226 -0.760626 1.473112 18.916186 -2.011512 -11.488377 -2.799812 -11.073344 33.389014 -2.575905 7.806291 -9.137555 -0.094000 -1.977400 5.443200 1.929617 1.413204 9.429913 0.987424 2.169288 0.129133 -1.452867 0.985662 -4.702708 -11.145890 -1.379875 -17.542815 4.229782 -0.328132 19.559356 4.206600 -1.570600 14.418100 -6.176483 -1.505763 -1.696034 -78.577234 0.371877 13.828437 19.164831 -27.125706 -5.803318 -1.641683 -2.210158 4.480038 23.349108 18.768780 9.445800 -7.125000 0.000000 0.000000 -3.957800 52.939000 -0.774000 5.133826 1.641513 -1.356377 82.695847 -3.360891 7.889069 -17.928948 26.635645 -4.778937 0.296415 -0.127456 6.647071 -12.298339 8.405840 -1.891400 7.125000 0.000000 0.000000 10.287900 -21.337200 5.933900 
47.205756 106.825578 54.114462 -179.191512 -29.346454 -178.016436 -3.333210 0.936209 2.364146 -11.211223 -1.325984 -14.366739 2.854249 11.886836 36.115530 2.755924 -15.595423 -4.969779 0.778900 -5.634800 -15.728300 2.309409 -0.780729 1.549118 20.136122 -1.447463 -10.700926 -2.533335 -10.657445 32.196398 -2.354930 7.103006 -8.364685 -0.017800 -0.862400 2.370300 3.091448 1.517407 10.050488 1.513071 2.493224 0.126505 -1.135082 1.118008 -5.036332 -10.756398 -1.252308 -17.320678 3.780416 -0.260653 19.427791 3.875100 -1.547200 14.282700 -6.169419 -1.546024 -1.715020 -80.597330 0.408530 13.233695 18.779429 -26.533641 -5.537997 -1.706321 -2.211349 4.526182 23.743911 18.671663 9.600100 -7.125000 0.000000 0.000000 -3.461600 52.924400 -0.675600 5.277418 1.626134 -1.338138 80.787868 -2.726890 8.462405 -17.227529 25.701905 -4.415919 0.322170 -0.145038 7.176285 -12.867057 8.282152 -1.957800 7.125000 0.000000 0.000000 9.864300 -21.427300 5.661600 
46.225296 106.954200 54.591948 -179.021083 -27.538367 -178.622995 -3.147184 0.989769 2.321422 -9.843339 -1.456924 -14.621908 3.444700 12.435112 38.007910 2.979393 -19.827749 -4.728332 1.218800 -7.002700 -19.723400 2.244112 -0.846136 1.603908 19.653113 -0.509508 -9.590113 -2.391144 -10.440458 31.529427 -2.331223 7.241017 -7.640818 -0.006100 -0.503500 1.383600 3.062661 1.600169 10.415026 1.667464 2.611284 0.213958 -0.884074 1.161224 -5.074456 -10.726623 -1.381390 -17.140615 4.327431 -0.586763 19.675210 4.050300 -1.634500 14.396300 -6.234238 -1.483449 -1.733810 -81.568842 0.746320 13.843796 18.264246 -25.841225 -5.238547 -1.643159 -2.241006 4.398853 22.668976 18.581016 9.094000 -7.125000 0.000000 0.000000 -4.605600 52.642500 -0.867700 5.352878 1.654409 -1.283675 79.832214 -1.999377 6.682510 -16.366208 24.560232 -3.989183 0.366861 -0.254598 9.796508 -14.576001 9.441864 -2.560200 7.125000 0.000000 0.000000 8.551500 -20.082300 5.152300 
45.092550 107.429262 54.983280 -179.295286 -26.416274 -179.052567 -3.043067 1.092724 2.271655 -8.449606 -3.120405 -13.961732 3.539294 12.682924 38.762632 2.702455 -13.478707 -6.494665 1.620200 -8.025600 -22.791700 2.215200 -0.962277 1.717172 18.505621 -0.504048 -8.148416 -2.058676 -9.909759 29.825869 -2.404626 7.944792 -6.432995 -0.001200 -0.219000 0.601700 2.818932 1.371311 10.729027 1.745171 2.276918 0.325717 -0.598412 0.993406 -5.031614 -10.659857 -1.342168 -16.939946 4.669835 -0.656049 19.794580 4.161900 -1.626900 14.403200 -6.262465 -1.422829 -1.755777 -82.210758 1.425095 15.170734 18.078111 -25.598932 -5.150801 -1.577196 -2.167312 5.554155 21.611373 17.863373 8.316900 -7.125000 0.000000 0.000000 -5.563600 51.633100 -0.911200 5.385743 1.655089 -1.237920 79.296817 -1.036208 4.203072 -16.283381 24.409552 -3.938760 0.346913 -0.120981 9.727399 -13.379539 6.623878 -1.628500 7.125000 0.000000 0.000000 9.556900 -23.130000 5.103500 
